<?xml version="1.0" standalone="no"?><svg xmlns="http://www.w3.org/2000/svg" viewBox="0 0 1440 320"><path fill="#6DBF63" fill-opacity="1" d="M0,128L24,128C48,128,96,128,144,149.3C192,171,240,213,288,224C336,235,384,213,432,170.7C480,128,528,64,576,69.3C624,75,672,149,720,165.3C768,181,816,139,864,149.3C912,160,960,224,1008,234.7C1056,245,1104,203,1152,170.7C1200,139,1248,117,1296,128C1344,139,1392,181,1416,202.7L1440,224L1440,320L1416,320C1392,320,1344,320,1296,320C1248,320,1200,320,1152,320C1104,320,1056,320,1008,320C960,320,912,320,864,320C816,320,768,320,720,320C672,320,624,320,576,320C528,320,480,320,432,320C384,320,336,320,288,320C240,320,192,320,144,320C96,320,48,320,24,320L0,320Z"></path></svg>