<?xml version="1.0" standalone="no"?><svg xmlns="http://www.w3.org/2000/svg" viewBox="0 0 1440 320"><path fill="#273036" fill-opacity="1" d="M0,128L24,128C48,128,96,128,144,138.7C192,149,240,171,288,165.3C336,160,384,128,432,101.3C480,75,528,53,576,58.7C624,64,672,96,720,106.7C768,117,816,107,864,112C912,117,960,139,1008,128C1056,117,1104,75,1152,53.3C1200,32,1248,32,1296,53.3C1344,75,1392,117,1416,138.7L1440,160L1440,320L1416,320C1392,320,1344,320,1296,320C1248,320,1200,320,1152,320C1104,320,1056,320,1008,320C960,320,912,320,864,320C816,320,768,320,720,320C672,320,624,320,576,320C528,320,480,320,432,320C384,320,336,320,288,320C240,320,192,320,144,320C96,320,48,320,24,320L0,320Z"></path></svg>